<?xml version="1.0" encoding="utf-8"?>
<!-- Generator: Adobe Illustrator 16.0.0, SVG Export Plug-In . SVG Version: 6.00 Build 0)  -->
<!DOCTYPE svg PUBLIC "-//W3C//DTD SVG 1.1//EN" "http://www.w3.org/Graphics/SVG/1.1/DTD/svg11.dtd">
<svg version="1.1" id="Layer_1" xmlns="http://www.w3.org/2000/svg" xmlns:xlink="http://www.w3.org/1999/xlink" x="0px" y="0px"
	 width="209.413px" height="209.413px" viewBox="0 0 209.413 209.413" enable-background="new 0 0 209.413 209.413"
	 xml:space="preserve">
<path fill-rule="evenodd" clip-rule="evenodd" fill="#82BC00" d="M104.707,209.413C46.879,209.413,0,162.535,0,104.707
	C0,46.88,46.879,0,104.707,0c57.826,0,104.706,46.88,104.706,104.707C209.413,162.535,162.533,209.413,104.707,209.413
	 M104.707,19.633c-46.984,0-85.075,38.089-85.075,85.074c0,46.985,38.091,85.074,85.075,85.074
	c46.983,0,85.073-38.089,85.073-85.074C189.78,57.722,151.69,19.633,104.707,19.633 M150.912,85.471l-52.354,52.352
	c-1.777,1.777-4.23,2.877-6.94,2.877s-5.164-1.1-6.94-2.877l-29.449-29.447c-1.776-1.777-2.875-4.231-2.875-6.941
	c0-5.42,4.395-9.816,9.815-9.816c2.71,0,5.164,1.101,6.94,2.878L91.618,117l45.413-45.409c1.773-1.777,4.231-2.878,6.94-2.878
	c5.423,0,9.815,4.395,9.815,9.817C153.787,81.243,152.688,83.694,150.912,85.471 M150.516,68.71c0,0.003,0,0.003,0,0.003v0.003
	V68.71z M68.714,150.516L68.714,150.516z M140.698,150.516L140.698,150.516h0.005H140.698z M150.516,140.703v-0.007
	c0,0.003,0,0.003,0,0.003V140.703"/>
</svg>
